<?xml version="1.0" encoding="utf-8"?>
<!-- Svg Vector Icons : http://www.onlinewebfonts.com/icon -->
<!DOCTYPE svg PUBLIC "-//W3C//DTD SVG 1.1//EN" "http://www.w3.org/Graphics/SVG/1.1/DTD/svg11.dtd">
<svg version="1.1" xmlns="http://www.w3.org/2000/svg" xmlns:xlink="http://www.w3.org/1999/xlink" x="0px" y="0px" viewBox="0 0 1000 1000" enable-background="new 0 0 1000 1000" xml:space="preserve">
<metadata> Svg Vector Icons : http://www.onlinewebfonts.com/icon </metadata>
<g><g transform="translate(0.000000,511.000000) scale(0.100000,-0.100000)"><path d="M2517,4400.2c-608.7-84.5-1129.1-334.1-1561.1-748.9c-514.6-493.5-812.2-1132.9-852.6-1839.5c-13.4-249.6,13.4-460.8,90.3-695.1c121-368.7,403.2-833.3,745-1228.9c105.6-121,1061.9-1088.7,2123.7-2150.6L4994-4192.5l2008.5,2006.6C8106.6-1081.8,9082-91,9172.3,14.6c320.7,387.9,560.7,804.6,674,1169.4c48,161.3,51.8,195.9,53.8,518.4c0,263.1-7.7,384-34.6,505c-238.1,1102.2-1052.2,1916.3-2158.3,2158.3c-272.7,59.5-819.9,59.5-1084.9,0c-268.8-59.5-455.1-126.7-706.6-255.4c-282.3-145.9-503.1-311.1-731.6-549.2L5003.6,3371L4898,3493.9c-359.1,416.7-929.4,748.9-1488.1,867.9C3190.9,4407.9,2716.7,4427.1,2517,4400.2z M7595.8,3758.9c433.9-94.1,791.1-293.8,1094.5-610.6c316.8-328.3,493.5-662.5,576.1-1100.2c38.4-197.8,38.4-505,0-652.9c-65.3-249.6-280.3-631.7-539.6-952.4c-73-90.2-939-975.4-1922.1-1968.2L5013.2-3326.5v2851.4v2849.5l240,307.2c332.2,424.4,443.5,543.4,639.4,691.3c276.5,207.4,633.7,359.1,973.5,412.8C7023.6,3808.8,7432.6,3795.4,7595.8,3758.9z"/></g></g>
</svg>