<?xml version="1.0" encoding="utf-8"?>
<!-- Svg Vector Icons : http://www.onlinewebfonts.com/icon -->
<!DOCTYPE svg PUBLIC "-//W3C//DTD SVG 1.1//EN" "http://www.w3.org/Graphics/SVG/1.1/DTD/svg11.dtd">
<svg version="1.1" xmlns="http://www.w3.org/2000/svg" xmlns:xlink="http://www.w3.org/1999/xlink" x="0px" y="0px" viewBox="0 0 1000 1000" enable-background="new 0 0 1000 1000" xml:space="preserve">
<metadata> Svg Vector Icons : http://www.onlinewebfonts.com/icon </metadata>
<g><g transform="translate(0.000000,511.000000) scale(0.100000,-0.100000)"><path d="M2505.9,4394.4c-606.3-84.4-1130-335.7-1557.9-746.3c-418.2-401-683-876.8-805.8-1446.6c-32.6-153.5-40.3-260.9-42.2-502.7c0-280.1,5.8-322.3,53.7-479.6c115.1-376,301.2-719.5,610.1-1118.5C878.9-50.9,1466-649.5,2960.6-2147.9L5000-4191.2l2039.4,2043.3C9203.5,20.1,9272.6,94.9,9543.1,543.8c138.2,228.3,230.2,431.7,303.2,675.3c48,157.3,53.7,199.5,53.7,479.6c-2,241.7-9.6,349.2-42.2,502.7c-268.6,1250.9-1308.4,2143-2572.8,2206.3c-832.7,42.2-1653.8-316.6-2204.4-961.2l-80.6-92.1l-90.2,101.7c-422.1,475.8-966.9,794.3-1563.6,909.4C3158.2,4402.1,2682.4,4419.3,2505.9,4394.4z M3355.8,3734.4c222.6-57.6,496.9-182.3,692.6-318.5c199.5-138.1,381.8-326.2,683-707.9c142-178.4,262.8-326.2,268.6-326.2s126.6,147.7,268.6,328.1c142,180.3,320.4,389.5,395.2,466.2c259,259,619.7,464.3,980.4,560.2c165,44.1,226.4,49.9,504.6,51.8c262.8,0,345.3-5.8,481.5-40.3c880.6-220.6,1506.1-897.9,1640.4-1780.4c67.1-431.7-21.1-754-331.9-1227.9c-63.3-94-178.4-249.4-259-345.3C8524.4,210,5030.7-3289.4,5000-3289.4c-28.8,0-3526.3,3499.4-3679.8,3683.6c-383.7,456.6-617.8,943.9-617.8,1283.5c0,172.7,49.9,470,107.4,640.8c259,775.1,919,1333.4,1726.7,1461.9C2734.2,3811.1,3142.8,3788.1,3355.8,3734.4z"/></g></g>
</svg>