<?xml version="1.0" encoding="utf-8"?>
<!-- Svg Vector Icons : http://www.onlinewebfonts.com/icon -->
<!DOCTYPE svg PUBLIC "-//W3C//DTD SVG 1.1//EN" "http://www.w3.org/Graphics/SVG/1.1/DTD/svg11.dtd">
<svg version="1.1" xmlns="http://www.w3.org/2000/svg" xmlns:xlink="http://www.w3.org/1999/xlink" x="0px" y="0px" viewBox="0 0 1000 1000" enable-background="new 0 0 1000 1000" xml:space="preserve">
<metadata> Svg Vector Icons : http://www.onlinewebfonts.com/icon </metadata>
<g><g transform="translate(0.000000,511.000000) scale(0.100000,-0.100000)"><path d="M2389.1,4377.7C1105.6,4149.5,171.4,3094.3,104.2,1799.4c-15.3-268.6,9.6-437.4,99.8-709.8C317.2,751.9,532,385.5,842.8,1.8c84.4-105.5,1043.6-1078.1,2154.4-2188.9l2000.9-1999l2035.4,2037.4C8152-1026.4,9126.5-36.5,9197.5,53.6c376,475.8,615.8,943.9,684.9,1339.1c38.4,218.7,11.5,663.8-55.6,924.7c-268.6,1043.6-1060.9,1811-2114.1,2043.1c-216.8,48-769.3,59.5-988,21.1c-276.3-48-500.7-118.9-748.2-239.8c-305-149.6-531.4-312.7-777-560.2l-203.4-203.4l-140,149.6c-418.2,452.7-959.2,748.2-1563.5,851.8C3079.7,4416.1,2598.2,4414.2,2389.1,4377.7z"/></g></g>
</svg>